<mxfile host="app.diagrams.net" modified="2021-06-20T20:19:01.270Z" agent="5.0 (Windows NT 10.0; Win64; x64) AppleWebKit/537.36 (KHTML, like Gecko) Chrome/91.0.4472.106 Safari/537.36" etag="uwcy_K3iMupIreTRTvOq" version="14.8.0" type="github">
  <diagram id="rzphaAauzlF2-GCLnLfy" name="Page-1">
    <mxGraphModel dx="569" dy="324" grid="1" gridSize="10" guides="1" tooltips="1" connect="1" arrows="1" fold="1" page="1" pageScale="1" pageWidth="827" pageHeight="1169" math="0" shadow="0">
      <root>
        <mxCell id="0" />
        <mxCell id="1" parent="0" />
        <mxCell id="dNQzV-ufwoZQzRG8EZ_N-1" value="&lt;font style=&quot;vertical-align: inherit&quot;&gt;&lt;font style=&quot;vertical-align: inherit&quot;&gt;Utilisateur&lt;/font&gt;&lt;/font&gt;" style="shape=umlActor;verticalLabelPosition=bottom;verticalAlign=top;html=1;outlineConnect=0;" parent="1" vertex="1">
          <mxGeometry x="170" y="160" width="30" height="60" as="geometry" />
        </mxCell>
        <mxCell id="dNQzV-ufwoZQzRG8EZ_N-2" style="edgeStyle=orthogonalEdgeStyle;rounded=0;orthogonalLoop=1;jettySize=auto;html=1;exitX=0.5;exitY=0.5;exitDx=0;exitDy=0;exitPerimeter=0;" parent="1" source="dNQzV-ufwoZQzRG8EZ_N-3" target="dNQzV-ufwoZQzRG8EZ_N-1" edge="1">
          <mxGeometry relative="1" as="geometry" />
        </mxCell>
        <mxCell id="dNQzV-ufwoZQzRG8EZ_N-3" value="&lt;font style=&quot;vertical-align: inherit&quot;&gt;&lt;font style=&quot;vertical-align: inherit&quot;&gt;Bénévole&lt;/font&gt;&lt;/font&gt;" style="shape=umlActor;verticalLabelPosition=bottom;verticalAlign=top;html=1;outlineConnect=0;" parent="1" vertex="1">
          <mxGeometry x="120" y="240" width="30" height="60" as="geometry" />
        </mxCell>
        <mxCell id="dNQzV-ufwoZQzRG8EZ_N-4" style="edgeStyle=orthogonalEdgeStyle;rounded=0;orthogonalLoop=1;jettySize=auto;html=1;exitX=0.5;exitY=0.5;exitDx=0;exitDy=0;exitPerimeter=0;entryX=0.5;entryY=0.5;entryDx=0;entryDy=0;entryPerimeter=0;" parent="1" source="dNQzV-ufwoZQzRG8EZ_N-5" target="dNQzV-ufwoZQzRG8EZ_N-1" edge="1">
          <mxGeometry relative="1" as="geometry" />
        </mxCell>
        <mxCell id="dNQzV-ufwoZQzRG8EZ_N-5" value="&lt;font style=&quot;vertical-align: inherit&quot;&gt;&lt;font style=&quot;vertical-align: inherit&quot;&gt;Elève&lt;/font&gt;&lt;/font&gt;" style="shape=umlActor;verticalLabelPosition=bottom;verticalAlign=top;html=1;outlineConnect=0;" parent="1" vertex="1">
          <mxGeometry x="120" y="80" width="30" height="60" as="geometry" />
        </mxCell>
        <mxCell id="dNQzV-ufwoZQzRG8EZ_N-6" value="Interface Chat" style="swimlane;startSize=0;" parent="1" vertex="1">
          <mxGeometry x="260" y="50" width="200" height="400" as="geometry" />
        </mxCell>
        <mxCell id="dNQzV-ufwoZQzRG8EZ_N-7" value="&lt;font style=&quot;vertical-align: inherit&quot;&gt;&lt;font style=&quot;vertical-align: inherit&quot;&gt;&lt;font style=&quot;vertical-align: inherit&quot;&gt;&lt;font style=&quot;vertical-align: inherit&quot;&gt;Création de message&lt;/font&gt;&lt;/font&gt;&lt;/font&gt;&lt;/font&gt;" style="ellipse;whiteSpace=wrap;html=1;" parent="dNQzV-ufwoZQzRG8EZ_N-6" vertex="1">
          <mxGeometry x="62.5" y="20" width="75" height="50" as="geometry" />
        </mxCell>
        <mxCell id="dNQzV-ufwoZQzRG8EZ_N-8" value="&lt;font style=&quot;vertical-align: inherit&quot;&gt;&lt;font style=&quot;vertical-align: inherit&quot;&gt;Suppression de message&lt;/font&gt;&lt;/font&gt;" style="ellipse;whiteSpace=wrap;html=1;" parent="dNQzV-ufwoZQzRG8EZ_N-6" vertex="1">
          <mxGeometry x="62.5" y="80" width="75" height="50" as="geometry" />
        </mxCell>
        <mxCell id="dNQzV-ufwoZQzRG8EZ_N-9" value="&lt;font style=&quot;vertical-align: inherit&quot;&gt;&lt;font style=&quot;vertical-align: inherit&quot;&gt;Modification de message&lt;/font&gt;&lt;/font&gt;" style="ellipse;whiteSpace=wrap;html=1;" parent="dNQzV-ufwoZQzRG8EZ_N-6" vertex="1">
          <mxGeometry x="62.5" y="140" width="75" height="50" as="geometry" />
        </mxCell>
        <mxCell id="dNQzV-ufwoZQzRG8EZ_N-10" value="&lt;font style=&quot;vertical-align: inherit&quot;&gt;&lt;font style=&quot;vertical-align: inherit&quot;&gt;Création de contact&lt;/font&gt;&lt;/font&gt;" style="ellipse;whiteSpace=wrap;html=1;" parent="dNQzV-ufwoZQzRG8EZ_N-6" vertex="1">
          <mxGeometry x="62.5" y="200" width="75" height="50" as="geometry" />
        </mxCell>
        <mxCell id="dNQzV-ufwoZQzRG8EZ_N-11" value="&lt;font style=&quot;vertical-align: inherit&quot;&gt;&lt;font style=&quot;vertical-align: inherit&quot;&gt;suppression de contact&lt;/font&gt;&lt;/font&gt;" style="ellipse;whiteSpace=wrap;html=1;" parent="dNQzV-ufwoZQzRG8EZ_N-6" vertex="1">
          <mxGeometry x="62.5" y="260" width="75" height="50" as="geometry" />
        </mxCell>
        <mxCell id="dNQzV-ufwoZQzRG8EZ_N-12" value="Accès historique des messages" style="ellipse;whiteSpace=wrap;html=1;" parent="dNQzV-ufwoZQzRG8EZ_N-6" vertex="1">
          <mxGeometry x="62.5" y="320" width="75" height="50" as="geometry" />
        </mxCell>
        <mxCell id="dNQzV-ufwoZQzRG8EZ_N-13" value="" style="endArrow=none;html=1;entryX=0;entryY=0.5;entryDx=0;entryDy=0;" parent="1" target="dNQzV-ufwoZQzRG8EZ_N-7" edge="1">
          <mxGeometry width="50" height="50" relative="1" as="geometry">
            <mxPoint x="200" y="190" as="sourcePoint" />
            <mxPoint x="440" y="190" as="targetPoint" />
          </mxGeometry>
        </mxCell>
        <mxCell id="dNQzV-ufwoZQzRG8EZ_N-14" value="" style="endArrow=none;html=1;entryX=0;entryY=0.5;entryDx=0;entryDy=0;" parent="1" target="dNQzV-ufwoZQzRG8EZ_N-12" edge="1">
          <mxGeometry width="50" height="50" relative="1" as="geometry">
            <mxPoint x="200" y="190" as="sourcePoint" />
            <mxPoint x="440" y="190" as="targetPoint" />
          </mxGeometry>
        </mxCell>
        <mxCell id="dNQzV-ufwoZQzRG8EZ_N-15" value="" style="endArrow=none;html=1;entryX=0;entryY=0.5;entryDx=0;entryDy=0;" parent="1" target="dNQzV-ufwoZQzRG8EZ_N-11" edge="1">
          <mxGeometry width="50" height="50" relative="1" as="geometry">
            <mxPoint x="200" y="190" as="sourcePoint" />
            <mxPoint x="440" y="190" as="targetPoint" />
          </mxGeometry>
        </mxCell>
        <mxCell id="dNQzV-ufwoZQzRG8EZ_N-16" value="" style="endArrow=none;html=1;entryX=0;entryY=0.5;entryDx=0;entryDy=0;" parent="1" target="dNQzV-ufwoZQzRG8EZ_N-10" edge="1">
          <mxGeometry width="50" height="50" relative="1" as="geometry">
            <mxPoint x="200" y="190" as="sourcePoint" />
            <mxPoint x="440" y="190" as="targetPoint" />
          </mxGeometry>
        </mxCell>
        <mxCell id="dNQzV-ufwoZQzRG8EZ_N-17" value="" style="endArrow=none;html=1;entryX=0;entryY=0.5;entryDx=0;entryDy=0;" parent="1" target="dNQzV-ufwoZQzRG8EZ_N-9" edge="1">
          <mxGeometry width="50" height="50" relative="1" as="geometry">
            <mxPoint x="200" y="190" as="sourcePoint" />
            <mxPoint x="440" y="190" as="targetPoint" />
          </mxGeometry>
        </mxCell>
        <mxCell id="dNQzV-ufwoZQzRG8EZ_N-18" value="" style="endArrow=none;html=1;entryX=0;entryY=0.5;entryDx=0;entryDy=0;" parent="1" source="dNQzV-ufwoZQzRG8EZ_N-1" target="dNQzV-ufwoZQzRG8EZ_N-8" edge="1">
          <mxGeometry width="50" height="50" relative="1" as="geometry">
            <mxPoint x="390" y="240" as="sourcePoint" />
            <mxPoint x="440" y="190" as="targetPoint" />
          </mxGeometry>
        </mxCell>
      </root>
    </mxGraphModel>
  </diagram>
</mxfile>
